<mxfile host="app.diagrams.net" agent="Mozilla/5.0 (Macintosh; Intel Mac OS X 10_15_7) AppleWebKit/605.1.15 (KHTML, like Gecko) Version/17.6 Safari/605.1.15" version="26.0.4">
  <diagram name="Page-1" id="n-eILItWfwSpyTJHAdlY">
    <mxGraphModel dx="954" dy="647" grid="0" gridSize="10" guides="1" tooltips="1" connect="1" arrows="1" fold="1" page="1" pageScale="1" pageWidth="827" pageHeight="1169" math="0" shadow="0">
      <root>
        <mxCell id="0" />
        <mxCell id="1" parent="0" />
        <mxCell id="7UGBPR7ecaljyOJY3g8a-1" value="&lt;font style=&quot;font-size: 16px;&quot;&gt;CLIENT-SERVER&lt;/font&gt;&lt;div&gt;&lt;font style=&quot;font-size: 16px;&quot;&gt;System Architecture&lt;/font&gt;&lt;/div&gt;" style="text;strokeColor=none;align=center;fillColor=none;html=1;verticalAlign=middle;whiteSpace=wrap;rounded=0;" vertex="1" parent="1">
          <mxGeometry x="280" y="10" width="320" height="30" as="geometry" />
        </mxCell>
        <mxCell id="7UGBPR7ecaljyOJY3g8a-2" value="Client" style="rounded=0;whiteSpace=wrap;html=1;" vertex="1" parent="1">
          <mxGeometry x="40" y="220" width="120" height="60" as="geometry" />
        </mxCell>
        <mxCell id="7UGBPR7ecaljyOJY3g8a-3" value="React.js" style="text;strokeColor=none;align=center;fillColor=none;html=1;verticalAlign=middle;whiteSpace=wrap;rounded=0;" vertex="1" parent="1">
          <mxGeometry x="65" y="290" width="70" height="30" as="geometry" />
        </mxCell>
        <mxCell id="7UGBPR7ecaljyOJY3g8a-10" value="Socket.io" style="rounded=0;whiteSpace=wrap;html=1;" vertex="1" parent="1">
          <mxGeometry x="235" y="100" width="120" height="60" as="geometry" />
        </mxCell>
        <mxCell id="7UGBPR7ecaljyOJY3g8a-11" value="For real-time messaging. To minimise latency" style="text;strokeColor=none;align=center;fillColor=none;html=1;verticalAlign=middle;whiteSpace=wrap;rounded=0;" vertex="1" parent="1">
          <mxGeometry x="215" y="165" width="160" height="30" as="geometry" />
        </mxCell>
        <mxCell id="7UGBPR7ecaljyOJY3g8a-12" value="" style="endArrow=classic;html=1;rounded=0;" edge="1" parent="1">
          <mxGeometry relative="1" as="geometry">
            <mxPoint x="160" y="249.5" as="sourcePoint" />
            <mxPoint x="240" y="249.5" as="targetPoint" />
          </mxGeometry>
        </mxCell>
        <mxCell id="7UGBPR7ecaljyOJY3g8a-13" value="" style="shape=message;html=1;outlineConnect=0;" vertex="1" parent="7UGBPR7ecaljyOJY3g8a-12">
          <mxGeometry width="20" height="14" relative="1" as="geometry">
            <mxPoint x="-10" y="-7" as="offset" />
          </mxGeometry>
        </mxCell>
        <mxCell id="7UGBPR7ecaljyOJY3g8a-50" value="" style="shape=message;html=1;outlineConnect=0;" vertex="1" parent="7UGBPR7ecaljyOJY3g8a-12">
          <mxGeometry width="20" height="14" relative="1" as="geometry">
            <mxPoint x="-30" y="-69" as="offset" />
          </mxGeometry>
        </mxCell>
        <mxCell id="7UGBPR7ecaljyOJY3g8a-51" value="" style="shape=message;html=1;outlineConnect=0;" vertex="1" parent="7UGBPR7ecaljyOJY3g8a-12">
          <mxGeometry width="20" height="14" relative="1" as="geometry">
            <mxPoint x="-30" y="51" as="offset" />
          </mxGeometry>
        </mxCell>
        <mxCell id="7UGBPR7ecaljyOJY3g8a-14" value="" style="rounded=1;whiteSpace=wrap;html=1;" vertex="1" parent="1">
          <mxGeometry x="580" y="160" width="120" height="40" as="geometry" />
        </mxCell>
        <mxCell id="7UGBPR7ecaljyOJY3g8a-15" value="server" style="rounded=1;whiteSpace=wrap;html=1;" vertex="1" parent="1">
          <mxGeometry x="580" y="200" width="120" height="40" as="geometry" />
        </mxCell>
        <mxCell id="7UGBPR7ecaljyOJY3g8a-16" value="" style="rounded=1;whiteSpace=wrap;html=1;" vertex="1" parent="1">
          <mxGeometry x="580" y="240" width="120" height="40" as="geometry" />
        </mxCell>
        <mxCell id="7UGBPR7ecaljyOJY3g8a-53" style="edgeStyle=orthogonalEdgeStyle;rounded=0;orthogonalLoop=1;jettySize=auto;html=1;" edge="1" parent="1" source="7UGBPR7ecaljyOJY3g8a-17">
          <mxGeometry relative="1" as="geometry">
            <mxPoint x="640" y="340" as="targetPoint" />
          </mxGeometry>
        </mxCell>
        <mxCell id="7UGBPR7ecaljyOJY3g8a-17" value="Node.js/Espress.js" style="text;strokeColor=none;align=center;fillColor=none;html=1;verticalAlign=middle;whiteSpace=wrap;rounded=0;" vertex="1" parent="1">
          <mxGeometry x="585" y="280" width="110" height="30" as="geometry" />
        </mxCell>
        <mxCell id="7UGBPR7ecaljyOJY3g8a-20" value="Database" style="shape=cylinder3;whiteSpace=wrap;html=1;boundedLbl=1;backgroundOutline=1;size=15;" vertex="1" parent="1">
          <mxGeometry x="760" y="180" width="60" height="80" as="geometry" />
        </mxCell>
        <mxCell id="7UGBPR7ecaljyOJY3g8a-26" value="caching&lt;div&gt;and&lt;br&gt;&lt;div&gt;queuing&lt;/div&gt;&lt;/div&gt;" style="shape=internalStorage;whiteSpace=wrap;html=1;backgroundOutline=1;" vertex="1" parent="1">
          <mxGeometry x="585" y="350" width="100" height="100" as="geometry" />
        </mxCell>
        <mxCell id="7UGBPR7ecaljyOJY3g8a-27" value="Redis" style="text;strokeColor=none;align=center;fillColor=none;html=1;verticalAlign=middle;whiteSpace=wrap;rounded=0;" vertex="1" parent="1">
          <mxGeometry x="560" y="460" width="100" height="30" as="geometry" />
        </mxCell>
        <mxCell id="7UGBPR7ecaljyOJY3g8a-42" style="edgeStyle=orthogonalEdgeStyle;rounded=0;orthogonalLoop=1;jettySize=auto;html=1;exitX=1;exitY=0.5;exitDx=0;exitDy=0;entryX=0;entryY=0.5;entryDx=0;entryDy=0;" edge="1" parent="1" source="7UGBPR7ecaljyOJY3g8a-32" target="7UGBPR7ecaljyOJY3g8a-40">
          <mxGeometry relative="1" as="geometry" />
        </mxCell>
        <mxCell id="7UGBPR7ecaljyOJY3g8a-32" value="Socket.io" style="rounded=0;whiteSpace=wrap;html=1;" vertex="1" parent="1">
          <mxGeometry x="230" y="210" width="120" height="60" as="geometry" />
        </mxCell>
        <mxCell id="7UGBPR7ecaljyOJY3g8a-44" style="edgeStyle=orthogonalEdgeStyle;rounded=0;orthogonalLoop=1;jettySize=auto;html=1;exitX=1;exitY=0.5;exitDx=0;exitDy=0;entryX=0;entryY=1;entryDx=0;entryDy=0;" edge="1" parent="1" source="7UGBPR7ecaljyOJY3g8a-33" target="7UGBPR7ecaljyOJY3g8a-40">
          <mxGeometry relative="1" as="geometry" />
        </mxCell>
        <mxCell id="7UGBPR7ecaljyOJY3g8a-33" value="Socket.io" style="rounded=0;whiteSpace=wrap;html=1;" vertex="1" parent="1">
          <mxGeometry x="230" y="280" width="120" height="60" as="geometry" />
        </mxCell>
        <mxCell id="7UGBPR7ecaljyOJY3g8a-35" value="Multiple sockets for scalability" style="text;strokeColor=none;align=center;fillColor=none;html=1;verticalAlign=middle;whiteSpace=wrap;rounded=0;" vertex="1" parent="1">
          <mxGeometry x="230" y="350" width="130" height="30" as="geometry" />
        </mxCell>
        <mxCell id="7UGBPR7ecaljyOJY3g8a-37" value="" style="endArrow=classic;html=1;rounded=0;" edge="1" parent="1">
          <mxGeometry width="50" height="50" relative="1" as="geometry">
            <mxPoint x="150" y="220" as="sourcePoint" />
            <mxPoint x="210" y="150" as="targetPoint" />
          </mxGeometry>
        </mxCell>
        <mxCell id="7UGBPR7ecaljyOJY3g8a-38" value="" style="endArrow=classic;html=1;rounded=0;" edge="1" parent="1">
          <mxGeometry width="50" height="50" relative="1" as="geometry">
            <mxPoint x="135" y="280" as="sourcePoint" />
            <mxPoint x="230" y="340" as="targetPoint" />
          </mxGeometry>
        </mxCell>
        <mxCell id="7UGBPR7ecaljyOJY3g8a-46" style="edgeStyle=orthogonalEdgeStyle;rounded=0;orthogonalLoop=1;jettySize=auto;html=1;exitX=1;exitY=0.5;exitDx=0;exitDy=0;" edge="1" parent="1" source="7UGBPR7ecaljyOJY3g8a-40">
          <mxGeometry relative="1" as="geometry">
            <mxPoint x="570" y="240" as="targetPoint" />
          </mxGeometry>
        </mxCell>
        <mxCell id="7UGBPR7ecaljyOJY3g8a-40" value="Load balancer" style="rounded=0;whiteSpace=wrap;html=1;" vertex="1" parent="1">
          <mxGeometry x="390" y="210" width="120" height="60" as="geometry" />
        </mxCell>
        <mxCell id="7UGBPR7ecaljyOJY3g8a-41" value="For scaling in later versions" style="text;strokeColor=none;align=center;fillColor=none;html=1;verticalAlign=middle;whiteSpace=wrap;rounded=0;" vertex="1" parent="1">
          <mxGeometry x="400" y="280" width="100" height="30" as="geometry" />
        </mxCell>
        <mxCell id="7UGBPR7ecaljyOJY3g8a-43" style="edgeStyle=orthogonalEdgeStyle;rounded=0;orthogonalLoop=1;jettySize=auto;html=1;exitX=1;exitY=0.5;exitDx=0;exitDy=0;entryX=0.383;entryY=-0.033;entryDx=0;entryDy=0;entryPerimeter=0;" edge="1" parent="1" source="7UGBPR7ecaljyOJY3g8a-10" target="7UGBPR7ecaljyOJY3g8a-40">
          <mxGeometry relative="1" as="geometry" />
        </mxCell>
        <mxCell id="7UGBPR7ecaljyOJY3g8a-52" style="edgeStyle=orthogonalEdgeStyle;rounded=0;orthogonalLoop=1;jettySize=auto;html=1;exitX=1;exitY=0.5;exitDx=0;exitDy=0;entryX=0;entryY=0.5;entryDx=0;entryDy=0;entryPerimeter=0;" edge="1" parent="1" source="7UGBPR7ecaljyOJY3g8a-15" target="7UGBPR7ecaljyOJY3g8a-20">
          <mxGeometry relative="1" as="geometry" />
        </mxCell>
        <mxCell id="7UGBPR7ecaljyOJY3g8a-54" value="&lt;font style=&quot;font-size: 16px;&quot;&gt;ENTITY RELATIONSHIP&lt;/font&gt;" style="text;strokeColor=none;align=center;fillColor=none;html=1;verticalAlign=middle;whiteSpace=wrap;rounded=0;" vertex="1" parent="1">
          <mxGeometry x="200" y="560" width="390" height="30" as="geometry" />
        </mxCell>
        <mxCell id="7UGBPR7ecaljyOJY3g8a-55" value="Users" style="rounded=0;whiteSpace=wrap;html=1;" vertex="1" parent="1">
          <mxGeometry x="340" y="690" width="110" height="30" as="geometry" />
        </mxCell>
        <mxCell id="7UGBPR7ecaljyOJY3g8a-67" style="edgeStyle=orthogonalEdgeStyle;rounded=0;orthogonalLoop=1;jettySize=auto;html=1;" edge="1" parent="1" source="7UGBPR7ecaljyOJY3g8a-56">
          <mxGeometry relative="1" as="geometry">
            <mxPoint x="400" y="680" as="targetPoint" />
          </mxGeometry>
        </mxCell>
        <mxCell id="7UGBPR7ecaljyOJY3g8a-56" value="Message App" style="rounded=1;whiteSpace=wrap;html=1;" vertex="1" parent="1">
          <mxGeometry x="340" y="590" width="120" height="60" as="geometry" />
        </mxCell>
        <mxCell id="7UGBPR7ecaljyOJY3g8a-57" value="Name/Username" style="ellipse;whiteSpace=wrap;html=1;" vertex="1" parent="1">
          <mxGeometry x="350" y="960" width="100" height="60" as="geometry" />
        </mxCell>
        <mxCell id="7UGBPR7ecaljyOJY3g8a-60" value="Sender" style="rounded=0;whiteSpace=wrap;html=1;" vertex="1" parent="1">
          <mxGeometry x="135" y="760" width="100" height="40" as="geometry" />
        </mxCell>
        <mxCell id="7UGBPR7ecaljyOJY3g8a-61" value="Receiver" style="rounded=0;whiteSpace=wrap;html=1;" vertex="1" parent="1">
          <mxGeometry x="560" y="760" width="100" height="40" as="geometry" />
        </mxCell>
        <mxCell id="7UGBPR7ecaljyOJY3g8a-63" value="Multiple&lt;div&gt;Groups&lt;/div&gt;" style="rhombus;whiteSpace=wrap;html=1;" vertex="1" parent="1">
          <mxGeometry x="355" y="810" width="80" height="80" as="geometry" />
        </mxCell>
        <mxCell id="7UGBPR7ecaljyOJY3g8a-64" value="Roles" style="ellipse;whiteSpace=wrap;html=1;" vertex="1" parent="1">
          <mxGeometry x="345" y="1030" width="110" height="50" as="geometry" />
        </mxCell>
        <mxCell id="7UGBPR7ecaljyOJY3g8a-69" value="" style="endArrow=classic;html=1;rounded=0;exitX=0.355;exitY=1.167;exitDx=0;exitDy=0;exitPerimeter=0;" edge="1" parent="1" source="7UGBPR7ecaljyOJY3g8a-55">
          <mxGeometry width="50" height="50" relative="1" as="geometry">
            <mxPoint x="370" y="730" as="sourcePoint" />
            <mxPoint x="240" y="780" as="targetPoint" />
          </mxGeometry>
        </mxCell>
        <mxCell id="7UGBPR7ecaljyOJY3g8a-70" value="" style="endArrow=classic;html=1;rounded=0;" edge="1" parent="1">
          <mxGeometry width="50" height="50" relative="1" as="geometry">
            <mxPoint x="400" y="730" as="sourcePoint" />
            <mxPoint x="550" y="780" as="targetPoint" />
          </mxGeometry>
        </mxCell>
        <mxCell id="7UGBPR7ecaljyOJY3g8a-75" value="" style="endArrow=classic;html=1;rounded=0;exitX=0.88;exitY=1.05;exitDx=0;exitDy=0;exitPerimeter=0;" edge="1" parent="1" source="7UGBPR7ecaljyOJY3g8a-60">
          <mxGeometry width="50" height="50" relative="1" as="geometry">
            <mxPoint x="220" y="810" as="sourcePoint" />
            <mxPoint x="340" y="970" as="targetPoint" />
          </mxGeometry>
        </mxCell>
        <mxCell id="7UGBPR7ecaljyOJY3g8a-76" value="" style="endArrow=classic;html=1;rounded=0;exitX=0.5;exitY=1;exitDx=0;exitDy=0;" edge="1" parent="1" source="7UGBPR7ecaljyOJY3g8a-60">
          <mxGeometry width="50" height="50" relative="1" as="geometry">
            <mxPoint x="241.5" y="890" as="sourcePoint" />
            <mxPoint x="340" y="1030" as="targetPoint" />
          </mxGeometry>
        </mxCell>
        <mxCell id="7UGBPR7ecaljyOJY3g8a-77" value="UserID" style="ellipse;whiteSpace=wrap;html=1;" vertex="1" parent="1">
          <mxGeometry x="350" y="910" width="100" height="50" as="geometry" />
        </mxCell>
        <mxCell id="7UGBPR7ecaljyOJY3g8a-78" value="" style="endArrow=classic;html=1;rounded=0;exitX=0.88;exitY=1.05;exitDx=0;exitDy=0;exitPerimeter=0;" edge="1" parent="1">
          <mxGeometry width="50" height="50" relative="1" as="geometry">
            <mxPoint x="241.5" y="790" as="sourcePoint" />
            <mxPoint x="340" y="920" as="targetPoint" />
            <Array as="points" />
          </mxGeometry>
        </mxCell>
        <mxCell id="7UGBPR7ecaljyOJY3g8a-80" value="" style="endArrow=classic;html=1;rounded=0;exitX=0.355;exitY=1.167;exitDx=0;exitDy=0;exitPerimeter=0;" edge="1" parent="1">
          <mxGeometry width="50" height="50" relative="1" as="geometry">
            <mxPoint x="585" y="800" as="sourcePoint" />
            <mxPoint x="460" y="920" as="targetPoint" />
          </mxGeometry>
        </mxCell>
        <mxCell id="7UGBPR7ecaljyOJY3g8a-81" value="" style="endArrow=classic;html=1;rounded=0;exitX=0.355;exitY=1.167;exitDx=0;exitDy=0;exitPerimeter=0;" edge="1" parent="1">
          <mxGeometry width="50" height="50" relative="1" as="geometry">
            <mxPoint x="609" y="810" as="sourcePoint" />
            <mxPoint x="460" y="980" as="targetPoint" />
          </mxGeometry>
        </mxCell>
        <mxCell id="7UGBPR7ecaljyOJY3g8a-82" value="" style="endArrow=classic;html=1;rounded=0;exitX=0.355;exitY=1.167;exitDx=0;exitDy=0;exitPerimeter=0;" edge="1" parent="1">
          <mxGeometry width="50" height="50" relative="1" as="geometry">
            <mxPoint x="619" y="820" as="sourcePoint" />
            <mxPoint x="470" y="1040" as="targetPoint" />
          </mxGeometry>
        </mxCell>
        <mxCell id="7UGBPR7ecaljyOJY3g8a-86" value="Admin" style="text;strokeColor=none;align=center;fillColor=none;html=1;verticalAlign=middle;whiteSpace=wrap;rounded=0;" vertex="1" parent="1">
          <mxGeometry x="400" y="1080" width="130" height="20" as="geometry" />
        </mxCell>
        <mxCell id="7UGBPR7ecaljyOJY3g8a-87" value="Basic user" style="text;strokeColor=none;align=center;fillColor=none;html=1;verticalAlign=middle;whiteSpace=wrap;rounded=0;" vertex="1" parent="1">
          <mxGeometry x="410" y="1100" width="130" height="20" as="geometry" />
        </mxCell>
        <mxCell id="7UGBPR7ecaljyOJY3g8a-88" value="Moderator" style="text;strokeColor=none;align=center;fillColor=none;html=1;verticalAlign=middle;whiteSpace=wrap;rounded=0;" vertex="1" parent="1">
          <mxGeometry x="410" y="1120" width="130" height="20" as="geometry" />
        </mxCell>
        <mxCell id="7UGBPR7ecaljyOJY3g8a-89" value="Others" style="text;strokeColor=none;align=center;fillColor=none;html=1;verticalAlign=middle;whiteSpace=wrap;rounded=0;" vertex="1" parent="1">
          <mxGeometry x="400" y="1140" width="130" height="20" as="geometry" />
        </mxCell>
        <mxCell id="7UGBPR7ecaljyOJY3g8a-92" value="" style="endArrow=none;html=1;rounded=0;" edge="1" parent="1">
          <mxGeometry width="50" height="50" relative="1" as="geometry">
            <mxPoint x="400" y="1150" as="sourcePoint" />
            <mxPoint x="400" y="1080" as="targetPoint" />
          </mxGeometry>
        </mxCell>
        <mxCell id="7UGBPR7ecaljyOJY3g8a-94" style="edgeStyle=orthogonalEdgeStyle;rounded=0;orthogonalLoop=1;jettySize=auto;html=1;" edge="1" parent="1" source="7UGBPR7ecaljyOJY3g8a-93">
          <mxGeometry relative="1" as="geometry">
            <mxPoint x="240" y="775" as="targetPoint" />
          </mxGeometry>
        </mxCell>
        <mxCell id="7UGBPR7ecaljyOJY3g8a-95" style="edgeStyle=orthogonalEdgeStyle;rounded=0;orthogonalLoop=1;jettySize=auto;html=1;" edge="1" parent="1" source="7UGBPR7ecaljyOJY3g8a-93">
          <mxGeometry relative="1" as="geometry">
            <mxPoint x="550" y="775" as="targetPoint" />
          </mxGeometry>
        </mxCell>
        <mxCell id="7UGBPR7ecaljyOJY3g8a-93" value="one to one" style="rhombus;whiteSpace=wrap;html=1;" vertex="1" parent="1">
          <mxGeometry x="350" y="740" width="85" height="70" as="geometry" />
        </mxCell>
        <mxCell id="7UGBPR7ecaljyOJY3g8a-96" value="" style="endArrow=classic;html=1;rounded=0;exitX=0.88;exitY=1.05;exitDx=0;exitDy=0;exitPerimeter=0;" edge="1" parent="1">
          <mxGeometry width="50" height="50" relative="1" as="geometry">
            <mxPoint x="245.75" y="785" as="sourcePoint" />
            <mxPoint x="350" y="850" as="targetPoint" />
            <Array as="points" />
          </mxGeometry>
        </mxCell>
        <mxCell id="7UGBPR7ecaljyOJY3g8a-97" value="" style="endArrow=classic;html=1;rounded=0;exitX=0.355;exitY=1.167;exitDx=0;exitDy=0;exitPerimeter=0;" edge="1" parent="1" target="7UGBPR7ecaljyOJY3g8a-63">
          <mxGeometry width="50" height="50" relative="1" as="geometry">
            <mxPoint x="560" y="790" as="sourcePoint" />
            <mxPoint x="435" y="910" as="targetPoint" />
          </mxGeometry>
        </mxCell>
      </root>
    </mxGraphModel>
  </diagram>
</mxfile>
